# xmcd CD database file
#
# Track frame offsets:
#	225
#	13480
#	23446
#	34356
#	44484
#	57014
#	67943
#	82607
#	93331
#	102546
#	112331
#	126139
#	154646
#
# Disc length: 2346 seconds
#
# Revision: 0
# Processed by: cddbd v1.5PL3 Copyright (c) Steve Scherf et al.
# Submitted via: CDex 1.51
#
DISCID=a409270d
DTITLE=Sarah Vaughan - If You Could See Me Now
DYEAR=2003
DGENRE=Jazz
TTITLE0=That Old Black Magic
TTITLE1=Careless
TTITLE2=Separate Ways
TTITLE3=Are You Certain
TTITLE4=Mary Contrary
TTITLE5=Broken Hearted Melody
TTITLE6=I've Got The World On A String
TTITLE7=Friendly Enemies
TTITLE8=What's So Bad About It
TTITLE9=Sweet Affection
TTITLE10=Misty
TTITLE11=Send In The Clowns
TTITLE12=If You Could See Me Now
EXTD=YEAR: 2003
EXTT0=
EXTT1=
EXTT2=
EXTT3=
EXTT4=
EXTT5=
EXTT6=
EXTT7=
EXTT8=
EXTT9=
EXTT10=
EXTT11=
EXTT12=
PLAYORDER=
